<svg xmlns="http://www.w3.org/2000/svg" viewBox="0 0 312.77 284.87"><g><path d="M271 26.17c-.42 3-8.78 10.25-11.46 11.28s-31-9.94-33.27-10.35-25.73-5.14-31.8-5.55a161.47 161.47 0 0 0-17.38-.18 158.08 158.08 0 0 0-30.5 3.51 158.4 158.4 0 0 0-28.47 9.43 142.64 142.64 0 0 0-19.57 10.16A136.07 136.07 0 0 0 69 69.43a133 133 0 0 0-30.32 59.34 130 130 0 0 0-3.14 31.43 119.48 119.48 0 0 0 4.62 30.32 107.15 107.15 0 0 0 9.61 22.55A102.4 102.4 0 0 0 66 234.32a98.94 98.94 0 0 0 19 15 95.47 95.47 0 0 0 27.73 10.91 116.06 116.06 0 0 0 26.06 3 130.09 130.09 0 0 0 29.39-3.51 145.68 145.68 0 0 0 39.56-15.9A168.31 168.31 0 0 0 232.51 227a162.43 162.43 0 0 0 21.81-21.63c4.67-5.62 9.09-10.94 13.49-19.23a92.32 92.32 0 0 0 8.32-21.81 77.42 77.42 0 0 0 2.4-19.78 62 62 0 0 0-10-34.57 79.36 79.36 0 0 0-9.8-12.57c-4-4.3-7.45-8.11-13.12-11.83-3.82-2.5-6.84-3.8-12.2-6.1-7-3-10.5-4.5-13.86-4.62-4.74-.16-7.89 1.26-9.61-.74a4.67 4.67 0 0 1-.55-4.62c.85-2 3.13-2.78 4.07-3.14 3.8-1.49 4.21-3.72 12.39-12.94 6.59-7.43 9.88-11.15 12.76-11.83 2-.48 4.71-.54 14.42 3.88 7.25 3.3 12.37 5.63 19 10.4a100.18 100.18 0 0 1 22.75 23.48 101.65 101.65 0 0 1 11.3 20.78 98.69 98.69 0 0 1 6.52 32.36 128.3 128.3 0 0 1-11.81 58.94 127.8 127.8 0 0 1-14.4 23.1 155.3 155.3 0 0 1-16.06 18.23 158 158 0 0 1-20.2 16.47 180.48 180.48 0 0 1-20 12.22 183.44 183.44 0 0 1-25.28 10.77 205.71 205.71 0 0 1-38.54 10.26 192.07 192.07 0 0 1-35.84 2.38 158.89 158.89 0 0 1-34.29-4.25 129.34 129.34 0 0 1-34.6-13.05A123.64 123.64 0 0 1 39.78 252a109.39 109.39 0 0 1-19.48-22.07 112 112 0 0 1-9.74-18.34 127.33 127.33 0 0 1-6.73-20A129.76 129.76 0 0 1 .42 169a145.88 145.88 0 0 1 6-54.18 147.21 147.21 0 0 1 8.49-22.89 157.19 157.19 0 0 1 28.9-41.33 164.27 164.27 0 0 1 40.93-29.65 177.59 177.59 0 0 1 20.51-8.49 205 205 0 0 1 20.3-6.53 188.18 188.18 0 0 1 28.18-5 199.86 199.86 0 0 1 26.83-.81A203.41 203.41 0 0 1 211 2.92c10.42 1.79 20 4.85 39.16 11C265.85 20 268 21.36 268 21.36a16.64 16.64 0 0 1 2.38 1.35c1.28 1.15.72 2.86.62 3.46z"/><path d="M192.76 60.26l-4.78-7.63-8.16.71-19.85 6.92-12.59 6.2-15.25 9.04-13.29 8.87-13.12 11.7-13.3 15.42-9.32 14.2-6.57 14.2-3.99 11.27-3.06 12.09-1.05 8.45v18.07l1.29 11.97 2.93 10.57 2.7 9.03 1.06 1.64h3.17v-6.8l-.36-11.97 1.65-14.79 1.41-9.15 2.11-7.28 3.64-11.27 4.22-9.15 4.23-7.63 7.39-10.68 5.75-7.04 3.87-4.81 6.58-7.04 5.86-5.99 4.67-4.69 4.14-3.99-4.14 7.51-3.73 8.8-1.99 5.75-2.23 8.21-1.88 6.84-1.17 7.6-.94 7.16-.59 6.1-.35 6.22-.12 5.17.35 7.62.36 6.81.82 3.76 1.4.7 3.06-.23 5.75-1.76 10.91-4.7 9.86-4.11 4.97-2.46 8.17-4.58 8.34-5.16 5.16-3.52 4.81-3.64 5.4-5.05 7.28-6.22 2.58-2.93 4.22-4.23 4.7-5.39 4.34-4.82 1.88-2.58 1.64-2.82 2.46 1.06-5.28 6.93-4.34 6.3-5.75 7.43-5.04 5.63-7.16 7.63-5.87 6.57-7.28 6.69-5.63 5.51-3.4 3.29-.83 1.76.12 1.88 2.11 1.88 37.79 27.22 1.53.83 1.41.11 1.64-.7 14.2-14.55 2.11-2.59v-1.64l-1.52-1.64-22.3-12.32 4.81-7.16 12.32-17.37 4.93-8.22 9.03-16.19 3.76-7.04 1.53-2.82 6.1-14.55-.58-1.29-2-1.06-12.56-5.63-6.69-1.88h-4.81l-3.17.12-1.29.7-2.23 3.64-3.28 5.16-2 2.35-3.4 5.05-3.99 4.1-2.82 2.7-5.04 5.05-4 4.22-5.04 4.23-7.63 6.57-4.81 3.52-7.63 4.93-4.11 2.11-4.57 2.35-4.11 2.35-3.52 1.41-.59-2.82.35-7.98.59-5.99.94-6.22 1.06-5.75 2.11-7.86 1.4-4.58 2.24-5.75 3.75-7.63 2.35-4.34 2.7-4.81 7.16-10.09 5.51-6.34 4.46-4.81 2.7-2.47 1.64-2.23 1.76-3.28 4.58-2 2.11-1.52.47-1.65-.3-1"/></g></svg>